HIERARCHY
ROOT hips
{
	OFFSET 0.000000 104.274902 0.000000
	CHANNELS 6 Xposition Yposition Zposition Xrotation Yrotation Zrotation
	JOINT spine
	{
		OFFSET 0.000000 10.181549 0.131524
		CHANNELS 6 Xposition Yposition Zposition Xrotation Yrotation Zrotation
		JOINT chest
		{
			OFFSET 0.000000 9.893990 -1.470706
			CHANNELS 3 Xrotation Yrotation Zrotation
			JOINT upperChest
			{
				OFFSET 0.000000 9.220787 -1.370637
				CHANNELS 3 Xrotation Yrotation Zrotation
				JOINT neck
				{
					OFFSET 0.000000 16.740372 -2.049022
					CHANNELS 6 Xposition Yposition Zposition Xrotation Yrotation Zrotation
					JOINT head
					{
						OFFSET 0.000000 9.617859 1.684976
						CHANNELS 6 Xposition Yposition Zposition Xrotation Yrotation Zrotation
						JOINT headEnd
						{
							OFFSET 0.000000 22.037384 7.501072
							CHANNELS 6 Xposition Yposition Zposition Xrotation Yrotation Zrotation
							End Site
							{
								OFFSET 0.000000 23.106567 -2.828246
							}
						}
					}
				}
				JOINT rightShoulder
				{
					OFFSET -4.570000 11.014877 -2.160840
					CHANNELS 6 Xposition Yposition Zposition Xrotation Yrotation Zrotation
					JOINT rightUpperArm
					{
						OFFSET -10.592867 -0.524796 -2.232105
						CHANNELS 3 Xrotation Yrotation Zrotation
						JOINT rightLowerArm
						{
							OFFSET -27.841497 0.000000 -0.000002
							CHANNELS 3 Xrotation Yrotation Zrotation
							JOINT rightHand
							{
								OFFSET -28.328812 0.000000 -0.000001
								CHANNELS 3 Xrotation Yrotation Zrotation
								JOINT rightThumbProximal
								{
									OFFSET -2.464798 -1.573990 2.681911
									CHANNELS 6 Xposition Yposition Zposition Xrotation Yrotation Zrotation
									JOINT rightThumbIntermediate
									{
										OFFSET -3.244781 -1.873383 1.873376
										CHANNELS 3 Xrotation Yrotation Zrotation
										JOINT rightThumbDistal
										{
											OFFSET -2.646263 -1.527817 1.527818
											CHANNELS 6 Xposition Yposition Zposition Xrotation Yrotation Zrotation
											JOINT rightHandThumb4
											{
												OFFSET -1.994591 -1.151581 1.151575
												CHANNELS 6 Xposition Yposition Zposition Xrotation Yrotation Zrotation
												End Site
												{
													OFFSET -1.860176 -1.142715 1.365483
												}
											}
										}
									}
								}
								JOINT rightIndexProximal
								{
									OFFSET -9.108299 -0.517883 2.259803
									CHANNELS 6 Xposition Yposition Zposition Xrotation Yrotation Zrotation
									JOINT rightIndexIntermediate
									{
										OFFSET -3.699997 0.000000 0.000000
										CHANNELS 3 Xrotation Yrotation Zrotation
										JOINT rightIndexDistal
										{
											OFFSET -2.850006 0.000000 0.000000
											CHANNELS 3 Xrotation Yrotation Zrotation
											JOINT rightHandIndex4
											{
												OFFSET -2.772194 0.000000 0.000000
												CHANNELS 3 Xrotation Yrotation Zrotation
												End Site
												{
													OFFSET -2.772202 0.000000 -0.000484
												}
											}
										}
									}
								}
								JOINT rightMiddleProximal
								{
									OFFSET -9.532501 0.000000 -0.000000
									CHANNELS 6 Xposition Yposition Zposition Xrotation Yrotation Zrotation
									JOINT rightMiddleIntermediate
									{
										OFFSET -3.699997 0.000000 0.000000
										CHANNELS 3 Xrotation Yrotation Zrotation
										JOINT rightMiddleDistal
										{
											OFFSET -2.949997 0.000000 0.000000
											CHANNELS 3 Xrotation Yrotation Zrotation
											JOINT rightHandMiddle4
											{
												OFFSET -2.946594 0.000000 0.000000
												CHANNELS 3 Xrotation Yrotation Zrotation
												End Site
												{
													OFFSET -2.946602 0.000000 -0.000982
												}
											}
										}
									}
								}
								JOINT rightRingProximal
								{
									OFFSET -9.103600 -0.043106 -1.865100
									CHANNELS 6 Xposition Yposition Zposition Xrotation Yrotation Zrotation
									JOINT rightRingIntermediate
									{
										OFFSET -3.379303 0.000000 0.000000
										CHANNELS 3 Xrotation Yrotation Zrotation
										JOINT rightRingDistal
										{
											OFFSET -2.889694 0.000000 0.000000
											CHANNELS 3 Xrotation Yrotation Zrotation
											JOINT rightHandRing4
											{
												OFFSET -2.638802 0.000000 0.000000
												CHANNELS 3 Xrotation Yrotation Zrotation
												End Site
												{
													OFFSET -2.638802 0.000000 0.004218
												}
											}
										}
									}
								}
								JOINT rightLittleProximal
								{
									OFFSET -8.076698 -0.486725 -3.806299
									CHANNELS 6 Xposition Yposition Zposition Xrotation Yrotation Zrotation
									JOINT rightLittleIntermediate
									{
										OFFSET -3.600006 0.000000 0.000000
										CHANNELS 3 Xrotation Yrotation Zrotation
										JOINT rightLittleDistal
										{
											OFFSET -2.099998 0.000000 0.000000
											CHANNELS 3 Xrotation Yrotation Zrotation
											JOINT rightHandPinky4
											{
												OFFSET -2.115791 0.000000 0.000000
												CHANNELS 3 Xrotation Yrotation Zrotation
												End Site
												{
													OFFSET -2.115799 0.000000 0.000174
												}
											}
										}
									}
								}
							}
						}
					}
				}
				JOINT leftShoulder
				{
					OFFSET 4.570400 11.014679 -2.160816
					CHANNELS 6 Xposition Yposition Zposition Xrotation Yrotation Zrotation
					JOINT leftUpperArm
					{
						OFFSET 10.592373 -0.524597 -2.232116
						CHANNELS 3 Xrotation Yrotation Zrotation
						JOINT leftLowerArm
						{
							OFFSET 27.841488 0.000000 0.000001
							CHANNELS 3 Xrotation Yrotation Zrotation
							JOINT leftHand
							{
								OFFSET 28.328808 0.000000 -0.000000
								CHANNELS 3 Xrotation Yrotation Zrotation
								JOINT leftThumbProximal
								{
									OFFSET 2.466103 -1.576202 2.681698
									CHANNELS 6 Xposition Yposition Zposition Xrotation Yrotation Zrotation
									JOINT leftThumbIntermediate
									{
										OFFSET 3.243317 -1.872528 1.872530
										CHANNELS 3 Xrotation Yrotation Zrotation
										JOINT leftThumbDistal
										{
											OFFSET 2.647881 -1.528763 1.528754
											CHANNELS 6 Xposition Yposition Zposition Xrotation Yrotation Zrotation
											JOINT leftHandThumb4
											{
												OFFSET 1.998924 -1.154083 1.154080
												CHANNELS 6 Xposition Yposition Zposition Xrotation Yrotation Zrotation
												End Site
												{
													OFFSET 1.884041 -1.149155 1.337651
												}
											}
										}
									}
								}
								JOINT leftIndexProximal
								{
									OFFSET 9.109299 -0.518005 2.259900
									CHANNELS 6 Xposition Yposition Zposition Xrotation Yrotation Zrotation
									JOINT leftIndexIntermediate
									{
										OFFSET 3.699997 0.000000 0.000000
										CHANNELS 3 Xrotation Yrotation Zrotation
										JOINT leftIndexDistal
										{
											OFFSET 2.850006 0.000000 0.000000
											CHANNELS 3 Xrotation Yrotation Zrotation
											JOINT leftHandIndex4
											{
												OFFSET 2.774895 0.000000 0.000000
												CHANNELS 3 Xrotation Yrotation Zrotation
												End Site
												{
													OFFSET 2.774902 0.000000 -0.000072
												}
											}
										}
									}
								}
								JOINT leftMiddleProximal
								{
									OFFSET 9.533401 0.000000 0.000000
									CHANNELS 6 Xposition Yposition Zposition Xrotation Yrotation Zrotation
									JOINT leftMiddleIntermediate
									{
										OFFSET 3.699997 0.000000 0.000000
										CHANNELS 3 Xrotation Yrotation Zrotation
										JOINT leftMiddleDistal
										{
											OFFSET 2.949997 0.000000 0.000000
											CHANNELS 3 Xrotation Yrotation Zrotation
											JOINT leftHandMiddle4
											{
												OFFSET 2.952896 0.000000 0.000000
												CHANNELS 3 Xrotation Yrotation Zrotation
												End Site
												{
													OFFSET 2.952904 0.000000 0.000165
												}
											}
										}
									}
								}
								JOINT leftRingProximal
								{
									OFFSET 9.104500 -0.042999 -1.865101
									CHANNELS 6 Xposition Yposition Zposition Xrotation Yrotation Zrotation
									JOINT leftRingIntermediate
									{
										OFFSET 3.149994 0.000000 0.000000
										CHANNELS 3 Xrotation Yrotation Zrotation
										JOINT leftRingDistal
										{
											OFFSET 2.950005 0.000000 0.000000
											CHANNELS 3 Xrotation Yrotation Zrotation
											JOINT leftHandRing4
											{
												OFFSET 2.644302 0.000000 0.000000
												CHANNELS 3 Xrotation Yrotation Zrotation
												End Site
												{
													OFFSET 2.644302 0.000000 0.000083
												}
											}
										}
									}
								}
								JOINT leftLittleProximal
								{
									OFFSET 8.077805 -0.486893 -3.806302
									CHANNELS 6 Xposition Yposition Zposition Xrotation Yrotation Zrotation
									JOINT leftLittleIntermediate
									{
										OFFSET 3.600006 0.000000 0.000000
										CHANNELS 3 Xrotation Yrotation Zrotation
										JOINT leftLittleDistal
										{
											OFFSET 2.099998 0.000000 0.000000
											CHANNELS 3 Xrotation Yrotation Zrotation
											JOINT leftHandPinky4
											{
												OFFSET 2.125496 0.000000 0.000000
												CHANNELS 3 Xrotation Yrotation Zrotation
												End Site
												{
													OFFSET 2.125504 0.000000 -0.001254
												}
											}
										}
									}
								}
							}
						}
					}
				}
			}
		}
	}
	JOINT rightUpperLeg
	{
		OFFSET -8.207800 -6.751701 -1.599544
		CHANNELS 6 Xposition Yposition Zposition Xrotation Yrotation Zrotation
		JOINT rightLowerLeg
		{
			OFFSET 0.000004 -44.370152 0.345934
			CHANNELS 3 Xrotation Yrotation Zrotation
			JOINT rightFoot
			{
				OFFSET 0.000004 -44.423664 -3.043535
				CHANNELS 3 Xrotation Yrotation Zrotation
				JOINT rightToes
				{
					OFFSET 0.000001 -8.728691 10.710592
					CHANNELS 3 Xrotation Yrotation Zrotation
					JOINT rightToesEnd
					{
						OFFSET 0.000000 -0.000665 9.278101
						CHANNELS 3 Xrotation Yrotation Zrotation
						End Site
						{
							OFFSET 0.000000 -0.000665 9.278103
						}
					}
				}
			}
		}
	}
	JOINT leftUpperLeg
	{
		OFFSET 8.207800 -6.751701 -1.599544
		CHANNELS 6 Xposition Yposition Zposition Xrotation Yrotation Zrotation
		JOINT leftLowerLeg
		{
			OFFSET 0.000004 -44.370037 0.346940
			CHANNELS 3 Xrotation Yrotation Zrotation
			JOINT leftFoot
			{
				OFFSET 0.000004 -44.423611 -3.044388
				CHANNELS 3 Xrotation Yrotation Zrotation
				JOINT leftToes
				{
					OFFSET 0.000001 -8.728690 10.710592
					CHANNELS 3 Xrotation Yrotation Zrotation
					JOINT leftToesEnd
					{
						OFFSET 0.000000 -0.000680 9.278101
						CHANNELS 3 Xrotation Yrotation Zrotation
						End Site
						{
							OFFSET 0.000000 -0.000680 9.278101
						}
					}
				}
			}
		}
	}
}
MOTION
Frames: 4
Frame Time: 0.033333
-6.810655 100.735100 166.678345 -2.486012 -7.053949 -2.323820 -0.000003 10.181544 0.131531 4.713649 12.012655 -2.346002 9.486803 1.725692 3.124145 9.403100 1.843525 3.292471 0.000001 16.740377 -2.049009 6.356008 -0.976092 2.033959 -0.000001 9.617848 1.684966 4.638223 1.211801 -11.944451 -0.000000 22.037384 7.501082 0.000002 -0.000001 0.000000 -4.570002 11.014879 -2.160822 1.671427 9.785114 8.220760 -9.159873 10.137429 62.799737 -0.000069 58.750555 0.000106 27.517563 -7.548731 13.394613 -2.464800 -1.573990 2.681914 -3.430852 -18.334253 -12.490470 5.383112 -16.953978 -0.794244 -2.646268 -1.527793 1.527822 -0.770285 -5.341377 -2.677144 -1.994594 -1.151555 1.151593 -0.000006 -0.000008 -0.000002 -9.108294 -0.517882 2.259808 0.152291 -1.450242 11.990066 0.152319 -1.450246 11.990064 0.152305 -1.450242 11.990064 -0.000001 -0.000002 0.000000 -9.532502 0.000004 -0.000009 0.131361 -1.347912 11.132516 0.185027 -1.596516 13.220862 0.196118 -1.642909 13.612459 0.000001 0.000000 -0.000001 -9.103621 -0.043105 -1.865100 0.175432 -1.555122 12.871895 0.246991 -1.840304 15.286928 0.261744 -1.893433 15.739785 -0.000001 0.000002 0.000001 -8.076692 -0.486726 -3.806308 0.325178 -2.105456 17.557966 0.325182 -2.105470 17.557957 0.325183 -2.105468 17.557957 0.000001 0.000004 0.000000 4.570403 11.014683 -2.160816 0.980439 -6.876653 2.798078 -16.713073 -54.900801 -52.521614 -0.000034 -72.633605 -0.000044 -16.889292 22.059187 2.927415 2.466086 -1.576226 2.681708 -3.918395 21.714421 13.619393 4.619955 16.283316 1.366825 2.647891 -1.528756 1.528753 0.085966 8.981037 3.251612 1.998932 -1.154079 1.154075 0.000003 -0.000001 -0.000000 9.109295 -0.518036 2.259901 0.083011 1.068266 -8.888637 0.083011 1.068288 -8.888601 0.083028 1.068264 -8.888630 0.000003 0.000003 0.000000 9.533396 -0.000003 0.000008 0.094838 1.141366 -9.502404 0.134484 1.356963 -11.319702 0.142130 1.394652 -11.638472 0.000002 0.000001 -0.000001 9.104504 -0.043012 -1.865092 0.160990 1.483274 -12.389852 0.226677 1.755757 -14.714300 0.240244 1.806527 -15.150203 -0.000001 0.000004 0.000000 8.077801 -0.486914 -3.806299 1.588214 6.003759 -17.658220 0.342254 -1.912407 -18.565899 0.341270 2.144895 -18.079996 0.000003 -0.000005 -0.000003 -8.207802 -6.751711 -1.599538 -15.779257 -12.407087 4.340792 40.857075 -5.715696 -8.613358 0.951563 0.165349 -2.178443 -24.110501 -0.000004 0.000000 -0.000000 -0.000000 -0.000000 8.207796 -6.751692 -1.599545 -37.208791 14.268717 0.794034 37.001211 1.639848 9.650124 21.899330 0.266895 2.171953 -1.969612 -0.000002 0.000000 -0.000002 -0.000000 0.000000 
-6.608548 100.817024 168.351685 -1.643092 -11.371889 -0.406563 -0.000005 10.181561 0.131517 3.812621 6.689142 -3.255378 9.422227 0.871230 0.449173 9.400491 0.942077 0.547911 -0.000000 16.740395 -2.049018 7.818635 0.987256 0.792092 -0.000002 9.617855 1.684997 4.404526 9.608836 -10.404182 -0.000003 22.037369 7.501101 -0.000001 -0.000001 -0.000001 -4.570001 11.014914 -2.160839 1.781557 10.491590 8.574605 0.309148 12.731213 64.476842 -0.000246 77.316621 0.000305 26.545677 -11.394101 13.464016 -2.464794 -1.574003 2.681911 -3.430854 -18.334256 -12.490472 5.383115 -16.953979 -0.794247 -2.646262 -1.527814 1.527828 -0.770288 -5.341379 -2.677147 -1.994593 -1.151613 1.151599 0.000004 0.000003 -0.000002 -9.108294 -0.517884 2.259804 0.152286 -1.450243 11.990065 0.152316 -1.450247 11.990063 0.152304 -1.450241 11.990066 0.000000 0.000005 0.000002 -9.532483 -0.000015 0.000002 0.131361 -1.347916 11.132513 0.185025 -1.596519 13.220862 0.196113 -1.642909 13.612459 0.000001 0.000001 0.000000 -9.103594 -0.043140 -1.865103 0.175426 -1.555123 12.871896 0.246989 -1.840304 15.286930 0.261744 -1.893436 15.739783 -0.000001 0.000002 0.000001 -8.076679 -0.486742 -3.806299 0.325175 -2.105458 17.557966 0.325185 -2.105469 17.557956 0.325185 -2.105464 17.557961 0.000001 0.000002 0.000003 4.570400 11.014693 -2.160812 0.918116 -6.740794 1.922019 -28.887332 -48.204948 -65.162211 -0.000019 -47.538287 -0.000004 -9.440036 19.182381 -0.145822 2.466128 -1.576214 2.681707 -3.918393 21.714414 13.619387 4.619954 16.283323 1.366826 2.647862 -1.528755 1.528759 0.085967 8.981036 3.251617 1.998928 -1.154079 1.154088 -0.000004 0.000001 0.000001 9.109319 -0.518006 2.259908 0.083009 1.068267 -8.888640 0.083018 1.068289 -8.888603 0.083033 1.068267 -8.888626 -0.000001 -0.000002 0.000001 9.533421 0.000023 0.000007 0.094841 1.141366 -9.502410 0.134483 1.356959 -11.319708 0.142131 1.394652 -11.638470 -0.000000 -0.000001 0.000001 9.104511 -0.042996 -1.865094 0.160992 1.483276 -12.389857 0.226679 1.755757 -14.714299 0.240243 1.806529 -15.150201 -0.000001 0.000002 -0.000000 8.077808 -0.486866 -3.806299 1.588217 6.003757 -17.658220 0.342253 -1.912406 -18.565899 0.341268 2.144890 -18.079999 -0.000001 -0.000000 -0.000001 -8.207807 -6.751709 -1.599560 -25.310804 -8.814582 3.658765 51.935625 -8.358636 -9.627017 13.246271 -0.090950 -2.920160 -23.719580 -0.041426 1.999342 -0.000000 -0.000001 -0.000000 8.207797 -6.751684 -1.599568 -29.416580 16.978682 -0.014839 27.719496 1.850544 7.987582 12.988032 0.192573 3.647254 -4.652623 0.096281 -2.812793 -0.000000 0.000000 0.000000 
-6.516699 100.041664 170.395844 -2.413446 -15.396452 0.829237 0.000009 10.181547 0.131526 3.736031 0.401569 -3.557565 9.369506 -0.136128 -2.363972 9.367328 -0.119012 -2.356097 0.000004 16.740368 -2.049026 8.573063 3.181443 -0.929456 -0.000009 9.617853 1.684968 3.809224 18.713880 -8.701097 -0.000004 22.037399 7.501077 0.000001 -0.000000 0.000000 -4.570000 11.014846 -2.160841 1.899300 11.101044 8.942484 5.572846 17.657344 64.589800 -0.010854 89.635468 0.010810 26.346022 -12.841656 13.153561 -2.464802 -1.573986 2.681896 -3.430857 -18.334255 -12.490468 5.383114 -16.953981 -0.794241 -2.646288 -1.527801 1.527813 -0.770276 -5.341375 -2.677143 -1.994590 -1.151568 1.151574 -0.000000 -0.000005 -0.000000 -9.108289 -0.517871 2.259795 0.152285 -1.450240 11.990069 0.152321 -1.450250 11.990066 0.152306 -1.450242 11.990067 0.000002 0.000002 -0.000000 -9.532491 -0.000003 -0.000010 0.131356 -1.347912 11.132514 0.185027 -1.596517 13.220865 0.196117 -1.642909 13.612462 0.000000 -0.000000 -0.000000 -9.103594 -0.043106 -1.865108 0.175425 -1.555118 12.871897 0.246994 -1.840310 15.286928 0.261746 -1.893436 15.739785 0.000000 -0.000001 0.000000 -8.076691 -0.486717 -3.806308 0.325172 -2.105458 17.557968 0.325184 -2.105475 17.557956 0.325185 -2.105470 17.557957 -0.000001 0.000003 0.000001 4.570401 11.014674 -2.160829 0.785244 -5.722483 0.641124 -35.820835 -39.758972 -69.434685 -0.000013 -23.502264 -0.000027 0.971323 10.545868 -3.381856 2.466103 -1.576206 2.681704 -3.918392 21.714420 13.619387 4.619949 16.283321 1.366824 2.647857 -1.528711 1.528764 0.085971 8.981037 3.251616 1.998932 -1.154068 1.154096 -0.000002 0.000002 0.000003 9.109306 -0.518019 2.259909 0.083014 1.068263 -8.888635 0.083015 1.068290 -8.888602 0.083033 1.068265 -8.888629 -0.000001 -0.000003 -0.000000 9.533400 0.000005 0.000004 0.094844 1.141366 -9.502404 0.134485 1.356962 -11.319708 0.142127 1.394649 -11.638470 0.000002 -0.000003 -0.000001 9.104499 -0.043000 -1.865093 0.160994 1.483270 -12.389854 0.226672 1.755757 -14.714297 0.240245 1.806527 -15.150207 -0.000000 -0.000005 -0.000001 8.077808 -0.486885 -3.806292 1.588216 6.003755 -17.658218 0.342252 -1.912410 -18.565899 0.341268 2.144888 -18.080001 0.000002 0.000001 0.000002 -8.207790 -6.751713 -1.599540 -33.313592 -3.932475 4.761287 62.545839 -9.463709 -9.223908 20.323370 -0.826439 -1.483140 -13.597686 -0.000015 0.000005 -0.000004 -0.000000 0.000000 8.207806 -6.751700 -1.599544 -23.599393 18.541961 -0.522962 26.199357 4.505882 5.878054 1.122089 -0.173990 3.436271 -2.570146 0.000261 -0.161231 0.000000 -0.000000 0.000000 
-6.506392 98.882507 172.168716 -4.333669 -17.974696 1.871242 0.000001 10.181565 0.131535 4.291646 -5.120973 -4.703416 9.654731 -1.023413 -4.407495 9.621718 -1.035327 -4.486947 -0.000000 16.740355 -2.049022 8.456975 4.855149 -2.366448 -0.000007 9.617850 1.684952 3.656460 25.543856 -7.857366 -0.000001 22.037369 7.501063 -0.000001 0.000000 0.000001 -4.569996 11.014886 -2.160836 1.957366 11.259586 9.219833 8.303049 21.505629 62.998052 0.000580 98.248617 -0.000533 27.647549 -12.902576 13.629790 -2.464787 -1.573991 2.681907 -3.430855 -18.334253 -12.490472 5.383119 -16.953981 -0.794247 -2.646257 -1.527840 1.527805 -0.770284 -5.341371 -2.677143 -1.994606 -1.151595 1.151587 0.000000 0.000000 0.000003 -9.108289 -0.517878 2.259801 0.152287 -1.450238 11.990063 0.152318 -1.450246 11.990063 0.152302 -1.450242 11.990064 0.000001 0.000001 0.000004 -9.532474 0.000012 -0.000005 0.131356 -1.347912 11.132512 0.185027 -1.596516 13.220866 0.196110 -1.642908 13.612459 -0.000003 0.000011 0.000002 -9.103586 -0.043108 -1.865106 0.175423 -1.555118 12.871894 0.246992 -1.840310 15.286932 0.261748 -1.893436 15.739785 0.000001 -0.000001 0.000001 -8.076669 -0.486746 -3.806307 0.325172 -2.105452 17.557964 0.325183 -2.105473 17.557959 0.325183 -2.105464 17.557961 0.000001 -0.000002 -0.000001 4.570407 11.014678 -2.160808 0.749681 -5.362712 -0.274708 -36.260040 -32.352858 -65.753452 -0.000001 -10.202840 0.000007 9.741239 0.324379 -3.519203 2.466123 -1.576161 2.681698 -3.918389 21.714420 13.619386 4.619956 16.283318 1.366824 2.647887 -1.528764 1.528750 0.085976 8.981033 3.251613 1.998928 -1.154060 1.154076 -0.000003 0.000001 0.000001 9.109327 -0.518005 2.259895 0.083014 1.068266 -8.888640 0.083013 1.068288 -8.888603 0.083028 1.068267 -8.888631 0.000002 0.000002 0.000000 9.533427 0.000022 -0.000007 0.094842 1.141369 -9.502408 0.134483 1.356963 -11.319708 0.142128 1.394649 -11.638472 0.000001 0.000000 0.000000 9.104519 -0.042969 -1.865106 0.160992 1.483275 -12.389856 0.226677 1.755757 -14.714300 0.240241 1.806528 -15.150201 0.000001 0.000003 -0.000003 8.077824 -0.486871 -3.806311 1.588219 6.003758 -17.658218 0.342253 -1.912411 -18.565899 0.341268 2.144892 -18.079999 -0.000001 -0.000001 0.000002 -8.207803 -6.751699 -1.599548 -38.733986 0.092582 6.446484 68.569048 -9.385169 -8.862229 25.436094 -0.497589 0.209795 -5.861929 0.000006 -0.000006 -0.000002 0.000001 -0.000001 8.207800 -6.751692 -1.599527 -20.795967 17.913966 -1.044928 30.432465 8.270065 3.486001 -6.321708 -0.205283 0.993129 -0.000051 -0.000000 0.000000 -0.000000 0.000000 0.000000 
